{"title":"The.Twilight.Saga.Breaking.Dawn.Part.1.2011.Cam.x264.Feel-Free","uid":6830353,"size":1338591659,"categoryP":"video","categoryS":"movies","magnet":"?xt=urn:btih:4492dedfabe7b8309e2ad063d5e0fe88d902a684&amp;dn=The.Twilight.Saga.Breaking.Dawn.Part.1.2011.Cam.x264.Feel-Free&amp;tr=udp%3A%2F%2Ftracker.openbittorrent.com%3A80&amp;tr=udp%3A%2F%2Fopen.demonii.com%3A1337&amp;tr=udp%3A%2F%2Ftracker.coppersurfer.tk%3A6969&amp;tr=udp%3A%2F%2Fexodus.desync.com%3A6969","seeders":1,"leechers":0,"uploader":".BONE.","files":8,"time":1321865230,"description":"Genre:Adventure | Drama | Fantasy\nLanguage:English\n &lt;a href=&quot;\nhttp://www.imdb.com/title/tt1324999/&quot; rel=&quot;nofollow&quot; target=&quot;_NEW&quot;&gt;\nhttp://www.imdb.com/title/tt1324999/&lt;/a&gt;\n\nSource::RUSSIAN/BiDA Thanks!\n\nFormat : MPEG-4\nFormat profile : Base Media\nCodec ID : isom\nFile size : 1.25 GiB\nDuration : 1h 43mn\nOverall bit rate : 1 731 Kbps\n\nVideo\nID : 1\nFormat : AVC\nFormat/Info : Advanced Video Codec\nFormat profile : &lt;a class=&quot;__cf_email__&quot; href=&quot;/cdn-cgi/l/email-protection&quot; data-cfemail=&quot;e9a1808e81a9a5dcc7d8&quot;&gt;[email&amp;#160;protected]&lt;/a&gt;&lt;script cf-hash='f9e31' type=&quot;text/javascript&quot;&gt;\n/* &lt;![CDATA[ */!function(){try{var t=&quot;currentScript&quot;in document?document.currentScript:function(){for(var t=document.getElementsByTagName(&quot;script&quot;),e=t.length;e--;)if(t[e].getAttribute(&quot;cf-hash&quot;))return t[e]}();if(t&amp;&amp;t.previousSibling){var e,r,n,i,c=t.previousSibling,a=c.getAttribute(&quot;data-cfemail&quot;);if(a){for(e=&quot;&quot;,r=parseInt(a.substr(0,2),16),n=2;a.length-n;n+=2)i=parseInt(a.substr(n,2),16)^r,e+=String.fromCharCode(i);e=document.createTextNode(e),c.parentNode.replaceChild(e,c)}}}catch(u){}}();/* ]]&gt; */&lt;/script&gt;\nFormat settings, CABAC : Yes\nFormat settings, ReFrames : 3 frames\nFormat settings, GOP : M=1, N=2\nCodec ID : avc1\nCodec ID/Info : Advanced Video Coding\nDuration : 1h 43mn\nBit rate mode : Variable\nBit rate : 1 500 Kbps\nMaximum bit rate : 8 743 Kbps\nWidth : 640 pixels\nHeight : 256 pixels\nDisplay aspect ratio : 2.500\nFrame rate mode : Constant\nFrame rate : 25.000 fps\nColor space : YUV\nChroma subsampling : 4:2:0\nBit depth : 8 bits\nScan type : Progressive\nBits/(Pixel*Frame) : 0.366\nStream size : 1.08 GiB (87%)\nWriting library : x264\n\nAudio\nID : 2\nFormat : AAC\nFormat/Info : Advanced Audio Codec\nFormat version : Version 4\nFormat profile : LC\nFormat settings, SBR : No\nCodec ID : 40\nDuration : 1h 43mn\nBit rate mode : Variable\nBit rate : 224 Kbps\nMaximum bit rate : 265 Kbps\nChannel(s) : 2 channels\nChannel positions : Front: L R\nSampling rate : 44.1 KHz\nStream size : 165 MiB (13%)\n\n\nPlot:\nThe Quileute and the Volturi close in on expecting parents Edward and Bella, whose unborn child poses different threats to the wolf pack and vampire coven\n &lt;a href=&quot;\nhttp://img210.imageshack.us/img210/6819/vlcsnap00001y.png&quot; rel=&quot;nofollow&quot; target=&quot;_NEW&quot;&gt;\nhttp://img210.imageshack.us/img210/6819/vlcsnap00001y.png&lt;/a&gt;\n &lt;a href=&quot;\nhttp://img191.imageshack.us/img191/2784/vlcsnap00002hq.png&quot; rel=&quot;nofollow&quot; target=&quot;_NEW&quot;&gt;\nhttp://img191.imageshack.us/img191/2784/vlcsnap00002hq.png&lt;/a&gt;\n &lt;a href=&quot;\nhttp://img834.imageshack.us/img834/1740/vlcsnap00004xy.png&quot; rel=&quot;nofollow&quot; target=&quot;_NEW&quot;&gt;\nhttp://img834.imageshack.us/img834/1740/vlcsnap00004xy.png&lt;/a&gt;","torrent":{"xt":"urn:btih:4492dedfabe7b8309e2ad063d5e0fe88d902a684","amp;dn":"The.Twilight.Saga.Breaking.Dawn.Part.1.2011.Cam.x264.Feel-Free","amp;tr":["udp%3A%2F%2Ftracker.openbittorrent.com%3A80","udp%3A%2F%2Fopen.demonii.com%3A1337","udp%3A%2F%2Ftracker.coppersurfer.tk%3A6969","udp%3A%2F%2Fexodus.desync.com%3A6969"],"infoHash":"4492dedfabe7b8309e2ad063d5e0fe88d902a684","infoHashBuffer":{"type":"Buffer","data":[68,146,222,223,171,231,184,48,158,42,208,99,213,224,254,136,217,2,166,132]},"announce":[],"urlList":[]}}